<?xml version="1.0" standalone="no"?><!DOCTYPE svg PUBLIC "-//W3C//DTD SVG 1.1//EN" "http://www.w3.org/Graphics/SVG/1.1/DTD/svg11.dtd"><svg class="icon" width="200px" height="200.00px" viewBox="0 0 1024 1024" version="1.1" xmlns="http://www.w3.org/2000/svg"><path fill="#757575" d="M510.141164 61.398372c-247.919463 0-448.722838 200.804399-448.722838 448.722838 0 247.920486 200.803375 448.723861 448.722838 448.723861 247.919463 0 448.723861-200.802352 448.723861-448.723861C958.865026 262.202771 758.06165 61.398372 510.141164 61.398372zM746.843144 649.227408c-10.095939 5.607718-26.923186-6.732331-42.627866-30.289863-5.608741 24.680099-21.314445 47.115064-42.62889 65.064878 22.437012 7.851828 37.020148 22.435988 37.020148 37.020148 0 25.800619-40.385802 45.992497-89.744977 45.992497-44.871977 0-81.891102-16.825201-88.62241-38.140669-2.242064 0-8.974395 0-11.218506 0-6.730285 21.315468-43.750433 38.140669-88.62241 38.140669-49.360198 0-89.744977-20.191878-89.744977-45.992497 0-15.705704 14.583137-29.16832 37.019125-37.020148-21.314445-17.949814-37.019125-40.384779-42.62889-65.064878-15.705704 22.435988-32.531927 34.776038-42.627866 30.289863-15.705704-7.853875-12.340049-50.482765 6.730285-94.233198 14.583137-34.776038 34.776038-60.57768 50.481741-66.186422 0-2.24411 0-4.487198 0-6.731308 0-13.46057 3.365654-25.800619 10.095939-35.897581 0-1.121544 0-1.121544 0-2.243087 0-6.730285 1.122567-12.340049 4.487198-16.827247 5.608741-91.989087 65.064878-163.78425 161.54014-163.78425s155.932422 71.795163 160.419619 162.662707c2.242064 4.487198 4.487198 11.218506 4.487198 16.826224 0 1.122567 0 1.122567 0 2.24411 6.730285 10.095939 10.095939 22.435988 10.095939 35.898605 0 2.243087 0 4.487198 0 6.731308 15.70468 5.608741 35.897581 31.410384 50.480718 66.186422C759.183194 598.744643 762.549871 641.373533 746.843144 649.227408z" /></svg>